<svg width="24" height="25" viewBox="0 0 24 25" fill="none" xmlns="http://www.w3.org/2000/svg">
<path d="M17.6568 15.328L16.2428 13.914L17.6568 12.5C18.0282 12.1286 18.3229 11.6876 18.5239 11.2023C18.7249 10.717 18.8284 10.1968 18.8284 9.6715C18.8284 9.1462 18.7249 8.62605 18.5239 8.14073C18.3229 7.65542 18.0282 7.21445 17.6568 6.843C17.2853 6.47156 16.8444 6.17691 16.359 5.97589C15.8737 5.77487 15.3536 5.6714 14.8283 5.6714C14.303 5.6714 13.7828 5.77487 13.2975 5.97589C12.8122 6.17691 12.3712 6.47156 11.9998 6.843L10.5858 8.257L9.17177 6.843L10.5858 5.429C11.7141 4.31892 13.2353 3.69966 14.8181 3.7061C16.401 3.71255 17.9171 4.34418 19.0364 5.46341C20.1556 6.58265 20.7872 8.0988 20.7937 9.68162C20.8001 11.2644 20.1808 12.7857 19.0708 13.914L17.6568 15.328ZM14.8278 18.157L13.4138 19.571C12.8583 20.1356 12.1965 20.5846 11.4666 20.8922C10.7367 21.1998 9.95319 21.3598 9.16115 21.363C8.36911 21.3662 7.58428 21.2126 6.85191 20.911C6.11954 20.6094 5.45414 20.1658 4.89408 19.6057C4.33402 19.0456 3.89039 18.3802 3.58878 17.6479C3.28717 16.9155 3.13354 16.1307 3.13677 15.3386C3.13999 14.5466 3.3 13.763 3.60757 13.0331C3.91513 12.3033 4.36417 11.6415 4.92877 11.086L6.34277 9.672L7.75677 11.086L6.34277 12.5C5.97133 12.8714 5.67668 13.3124 5.47566 13.7977C5.27463 14.283 5.17117 14.8032 5.17117 15.3285C5.17117 15.8538 5.27463 16.374 5.47566 16.8593C5.67668 17.3446 5.97133 17.7856 6.34277 18.157C6.71421 18.5284 7.15518 18.8231 7.6405 19.0241C8.12581 19.2251 8.64597 19.3286 9.17127 19.3286C9.69657 19.3286 10.2167 19.2251 10.702 19.0241C11.1874 18.8231 11.6283 18.5284 11.9998 18.157L13.4138 16.743L14.8278 18.157ZM14.8278 8.257L16.2428 9.672L9.17177 16.742L7.75677 15.328L14.8278 8.258V8.257Z" fill="white"/>
</svg>
